<svg width="75" height="130" viewBox="0 0 75 130" fill="none" xmlns="http://www.w3.org/2000/svg">
<path d="M2.86799 2.8615C1.03161 4.69427 0 7.17971 0 9.77125C0 12.3628 1.03161 14.8482 2.86799 16.681L51.3557 65.059L2.86799 113.437C1.08366 115.28 0.0963264 117.749 0.118645 120.312C0.140963 122.874 1.17115 125.325 2.98731 127.137C4.80348 128.95 7.26032 129.977 9.82867 130C12.397 130.022 14.8714 129.037 16.7188 127.257L72.132 71.9688C73.9684 70.136 75 67.6505 75 65.059C75 62.4675 73.9684 59.982 72.132 58.1493L16.7188 2.8615C14.8819 1.02928 12.3908 0 9.79341 0C7.19599 0 4.70492 1.02928 2.86799 2.8615Z" fill="#DA0C81"/>
</svg>
